<svg width="45" height="45" viewBox="0 0 45 45" fill="none" xmlns="http://www.w3.org/2000/svg">
<rect width="45" height="45" rx="10" fill="#06B6D4"/>
<path d="M14.474 31.5915C14.474 31.5911 14.4741 31.5908 14.4744 31.5906L19.3944 26.6706C19.9671 26.0978 20.8547 25.9709 21.6031 25.661V25.661C22.0098 25.4925 22.3497 25.1945 22.5698 24.8132C22.79 24.4319 22.8782 23.9887 22.8207 23.5521C22.7632 23.1156 22.5633 22.7103 22.252 22.3989C21.9407 22.0876 21.5353 21.8877 21.0988 21.8303C20.6623 21.7728 20.219 21.861 19.8377 22.0812C19.4564 22.3013 19.1585 22.6411 18.99 23.0479V23.0479C18.6801 23.7963 18.5531 24.6838 17.9804 25.2566L13.6104 29.6265C13.3064 29.9305 12.8136 29.9305 12.5096 29.6265V29.6265C12.222 29.339 12.2061 28.8795 12.4578 28.56C14.3668 26.1369 15.4118 23.466 16.3976 19.7424C16.9826 17.5325 18.8227 15.866 21.0947 15.6136V15.6136C22.7199 15.4331 24.3391 16.0011 25.4954 17.1573L27.4936 19.1556C28.6499 20.3119 29.2179 21.931 29.0373 23.5562V23.5562C28.7849 25.8282 27.1185 27.6684 24.9086 28.2534C21.3123 29.2055 18.6982 30.2129 16.3412 32.0011C15.8755 32.3544 15.2157 32.333 14.8022 31.9198L14.4744 31.5923C14.4741 31.5921 14.474 31.5918 14.474 31.5915V31.5915ZM26.141 12.146L32.488 18.492C32.5534 18.5573 32.5994 18.6394 32.621 18.7293C32.6425 18.8191 32.6387 18.9132 32.61 19.0011C32.5813 19.0889 32.5289 19.1671 32.4584 19.2269C32.388 19.2867 32.3023 19.3259 32.211 19.34V19.34C31.2847 19.4845 30.345 19.178 29.6821 18.5151L26.1417 14.9747C25.474 14.3069 25.1595 13.3638 25.293 12.429V12.429C25.3062 12.3371 25.3446 12.2508 25.4041 12.1796C25.4636 12.1084 25.5416 12.0551 25.6296 12.0257C25.7176 11.9963 25.8121 11.992 25.9024 12.0133C25.9927 12.0345 26.0753 12.0805 26.141 12.146Z" fill="white"/>
</svg>
